<?xml version="1.0" encoding="UTF-8" standalone="no"?>
<svg
   xmlns:dc="http://purl.org/dc/elements/1.1/"
   xmlns:cc="http://creativecommons.org/ns#"
   xmlns:rdf="http://www.w3.org/1999/02/22-rdf-syntax-ns#"
   xmlns:svg="http://www.w3.org/2000/svg"
   xmlns="http://www.w3.org/2000/svg"
   viewBox="0 0 546.66669 246.66667"
   height="246.66667"
   width="546.66669"
   xml:space="preserve"
   id="svg2"
   version="1.1"><metadata
     id="metadata8"><rdf:RDF><cc:Work
         rdf:about=""><dc:format>image/svg+xml</dc:format><dc:type
           rdf:resource="http://purl.org/dc/dcmitype/StillImage" /></cc:Work></rdf:RDF></metadata><defs
     id="defs6" /><g
     transform="matrix(1.3333333,0,0,-1.3333333,0,246.66667)"
     id="g10"><g
       transform="scale(0.1)"
       id="g12"><g
         transform="scale(10)"
         id="g14"><text
           id="text18"
           style="font-variant:normal;font-weight:bold;font-size:12px;font-family:'Courier New';-inkscape-font-specification:Courier-Bold;writing-mode:lr-tb;fill:#000000;fill-opacity:1;fill-rule:nonzero;stroke:none"
           transform="matrix(1,0,0,-1,5,85)"><tspan
             id="tspan16"
             y="0"
             x="0 7.1999998 14.4 21.6 28.799999">Input</tspan></text>
<text
           id="text22"
           style="font-variant:normal;font-weight:bold;font-size:8px;font-family:'Courier New';-inkscape-font-specification:Courier-Bold;writing-mode:lr-tb;fill:#000000;fill-opacity:1;fill-rule:nonzero;stroke:none"
           transform="matrix(1,0,0,-1,41,82.5)"><tspan
             id="tspan20"
             y="0"
             x="0">m</tspan></text>
<text
           id="text32"
           style="font-variant:normal;font-weight:bold;font-size:12px;font-family:'Courier New';-inkscape-font-specification:Courier-Bold;writing-mode:lr-tb;fill:#000000;fill-opacity:1;fill-rule:nonzero;stroke:none"
           transform="matrix(1,0,0,-1,19.4,105)"><tspan
             id="tspan24"
             y="0"
             x="0">.</tspan><tspan
             id="tspan26"
             y="-5"
             x="0">.</tspan><tspan
             id="tspan28"
             y="-10"
             x="0">.</tspan><tspan
             id="tspan30"
             y="-30"
             x="-14.4 -7.1999998 0 7.1999998 14.4">Input</tspan></text>
<text
           id="text36"
           style="font-variant:normal;font-weight:bold;font-size:8px;font-family:'Courier New';-inkscape-font-specification:Courier-Bold;writing-mode:lr-tb;fill:#000000;fill-opacity:1;fill-rule:nonzero;stroke:none"
           transform="matrix(1,0,0,-1,41,132.5)"><tspan
             id="tspan34"
             y="0"
             x="0">1</tspan></text>
<text
           id="text40"
           style="font-variant:normal;font-weight:bold;font-size:12px;font-family:'Courier New';-inkscape-font-specification:Courier-Bold;writing-mode:lr-tb;fill:#000000;fill-opacity:1;fill-rule:nonzero;stroke:none"
           transform="matrix(1,0,0,-1,5,160)"><tspan
             id="tspan38"
             y="0"
             x="0 7.1999998 14.4 21.6 28.799999">Input</tspan></text>
<text
           id="text44"
           style="font-variant:normal;font-weight:bold;font-size:8px;font-family:'Courier New';-inkscape-font-specification:Courier-Bold;writing-mode:lr-tb;fill:#000000;fill-opacity:1;fill-rule:nonzero;stroke:none"
           transform="matrix(1,0,0,-1,41,157.5)"><tspan
             id="tspan42"
             y="0"
             x="0">0</tspan></text>
<text
           id="text50"
           style="font-variant:normal;font-weight:bold;font-size:12px;font-family:'Courier New';-inkscape-font-specification:Courier-Bold;writing-mode:lr-tb;fill:#000000;fill-opacity:1;fill-rule:nonzero;stroke:none"
           transform="matrix(1,0,0,-1,169,122.5)"><tspan
             id="tspan46"
             y="0"
             x="0 7.1999998 14.4 21.6 28.799999 36 43.200001 50.400002 57.599998 64.800003">Validation</tspan><tspan
             id="tspan48"
             y="37.5"
             x="188 195.2 202.39999 209.60001 216.8 224">Output</tspan></text>
<text
           id="text54"
           style="font-variant:normal;font-weight:bold;font-size:8px;font-family:'Courier New';-inkscape-font-specification:Courier-Bold;writing-mode:lr-tb;fill:#000000;fill-opacity:1;fill-rule:nonzero;stroke:none"
           transform="matrix(1,0,0,-1,400.2,82.5)"><tspan
             id="tspan52"
             y="0"
             x="0">n</tspan></text>
<text
           id="text64"
           style="font-variant:normal;font-weight:bold;font-size:12px;font-family:'Courier New';-inkscape-font-specification:Courier-Bold;writing-mode:lr-tb;fill:#000000;fill-opacity:1;fill-rule:nonzero;stroke:none"
           transform="matrix(1,0,0,-1,375,105)"><tspan
             id="tspan56"
             y="0"
             x="0">.</tspan><tspan
             id="tspan58"
             y="-5"
             x="0">.</tspan><tspan
             id="tspan60"
             y="-10"
             x="0">.</tspan><tspan
             id="tspan62"
             y="-30"
             x="-18 -10.8 -3.5999999 3.5999999 10.8 18">Output</tspan></text>
<text
           id="text68"
           style="font-variant:normal;font-weight:bold;font-size:8px;font-family:'Courier New';-inkscape-font-specification:Courier-Bold;writing-mode:lr-tb;fill:#000000;fill-opacity:1;fill-rule:nonzero;stroke:none"
           transform="matrix(1,0,0,-1,400.2,132.5)"><tspan
             id="tspan66"
             y="0"
             x="0">1</tspan></text>
<text
           id="text72"
           style="font-variant:normal;font-weight:bold;font-size:12px;font-family:'Courier New';-inkscape-font-specification:Courier-Bold;writing-mode:lr-tb;fill:#000000;fill-opacity:1;fill-rule:nonzero;stroke:none"
           transform="matrix(1,0,0,-1,357,160)"><tspan
             id="tspan70"
             y="0"
             x="0 7.1999998 14.4 21.6 28.799999 36">Output</tspan></text>
<text
           id="text76"
           style="font-variant:normal;font-weight:bold;font-size:8px;font-family:'Courier New';-inkscape-font-specification:Courier-Bold;writing-mode:lr-tb;fill:#000000;fill-opacity:1;fill-rule:nonzero;stroke:none"
           transform="matrix(1,0,0,-1,400.2,157.5)"><tspan
             id="tspan74"
             y="0"
             x="0">0</tspan></text>
<text
           id="text80"
           style="font-variant:normal;font-weight:bold;font-size:12px;font-family:'Courier New';-inkscape-font-specification:Courier-Bold;writing-mode:lr-tb;fill:#000000;fill-opacity:1;fill-rule:nonzero;stroke:none"
           transform="matrix(1,0,0,-1,79.8,5)"><tspan
             id="tspan78"
             y="0"
             x="0 7.1999998 14.4 21.6 28.799999 36 43.200001 196.40041 203.6004 210.8004 218.0004 225.20039 232.40041 239.6004 246.8004">/:input/:output</tspan></text>
</g><path
         id="path82"
         style="fill:none;stroke:#000000;stroke-width:10;stroke-linecap:butt;stroke-linejoin:miter;stroke-miterlimit:10;stroke-dasharray:none;stroke-opacity:1"
         d="m 800,550 500,250 v 750 L 800,1800 V 550 M 50,800 H 800 M 50,1300 H 800 M 50,1550 h 750 m 500,-375 h 1500 m 500,-625 -500,250 v 750 l 500,250 V 550 m 0,250 h 750 m -750,500 h 750 m -750,250 h 750 M 1050,675 V 175 M 3050,675 V 175" /></g></g></svg>